<mxfile host="app.diagrams.net" modified="2020-10-23T14:49:19.440Z" agent="5.0 (Windows NT 10.0; Win64; x64) AppleWebKit/537.36 (KHTML, like Gecko) Chrome/86.0.4240.111 Safari/537.36 Edg/86.0.622.51" etag="KlExDbpU5TbyXaoQL7mq" version="13.8.1" type="github">
  <diagram id="9ZkZlIGgE5uYcA9EyFpw" name="Page-1">
    <mxGraphModel dx="1422" dy="772" grid="1" gridSize="10" guides="1" tooltips="1" connect="1" arrows="1" fold="1" page="1" pageScale="1" pageWidth="827" pageHeight="1169" math="0" shadow="0">
      <root>
        <mxCell id="0" />
        <mxCell id="1" parent="0" />
        <mxCell id="-8UJp8PdIsaVpiz4Ct3G-4" value="" style="edgeStyle=orthogonalEdgeStyle;rounded=0;orthogonalLoop=1;jettySize=auto;html=1;" edge="1" parent="1" source="-8UJp8PdIsaVpiz4Ct3G-1" target="-8UJp8PdIsaVpiz4Ct3G-3">
          <mxGeometry relative="1" as="geometry" />
        </mxCell>
        <mxCell id="-8UJp8PdIsaVpiz4Ct3G-1" value="Начало" style="ellipse;whiteSpace=wrap;html=1;" vertex="1" parent="1">
          <mxGeometry x="354" y="20" width="120" height="80" as="geometry" />
        </mxCell>
        <mxCell id="-8UJp8PdIsaVpiz4Ct3G-2" value="Конец" style="ellipse;whiteSpace=wrap;html=1;" vertex="1" parent="1">
          <mxGeometry x="354" y="630" width="120" height="80" as="geometry" />
        </mxCell>
        <mxCell id="-8UJp8PdIsaVpiz4Ct3G-6" value="" style="edgeStyle=orthogonalEdgeStyle;rounded=0;orthogonalLoop=1;jettySize=auto;html=1;" edge="1" parent="1" source="-8UJp8PdIsaVpiz4Ct3G-3" target="-8UJp8PdIsaVpiz4Ct3G-5">
          <mxGeometry relative="1" as="geometry" />
        </mxCell>
        <mxCell id="-8UJp8PdIsaVpiz4Ct3G-3" value="Подача на 1 станок" style="whiteSpace=wrap;html=1;" vertex="1" parent="1">
          <mxGeometry x="354" y="130" width="120" height="60" as="geometry" />
        </mxCell>
        <mxCell id="-8UJp8PdIsaVpiz4Ct3G-8" value="" style="edgeStyle=orthogonalEdgeStyle;rounded=0;orthogonalLoop=1;jettySize=auto;html=1;" edge="1" parent="1" source="-8UJp8PdIsaVpiz4Ct3G-5" target="-8UJp8PdIsaVpiz4Ct3G-7">
          <mxGeometry relative="1" as="geometry" />
        </mxCell>
        <mxCell id="-8UJp8PdIsaVpiz4Ct3G-5" value="Обработка" style="whiteSpace=wrap;html=1;" vertex="1" parent="1">
          <mxGeometry x="354" y="220" width="120" height="60" as="geometry" />
        </mxCell>
        <mxCell id="-8UJp8PdIsaVpiz4Ct3G-10" value="" style="edgeStyle=orthogonalEdgeStyle;rounded=0;orthogonalLoop=1;jettySize=auto;html=1;" edge="1" parent="1" source="-8UJp8PdIsaVpiz4Ct3G-7" target="-8UJp8PdIsaVpiz4Ct3G-9">
          <mxGeometry relative="1" as="geometry" />
        </mxCell>
        <mxCell id="-8UJp8PdIsaVpiz4Ct3G-12" value="" style="edgeStyle=orthogonalEdgeStyle;rounded=0;orthogonalLoop=1;jettySize=auto;html=1;" edge="1" parent="1" source="-8UJp8PdIsaVpiz4Ct3G-7" target="-8UJp8PdIsaVpiz4Ct3G-11">
          <mxGeometry relative="1" as="geometry" />
        </mxCell>
        <mxCell id="-8UJp8PdIsaVpiz4Ct3G-7" value="Брак" style="rhombus;whiteSpace=wrap;html=1;" vertex="1" parent="1">
          <mxGeometry x="374" y="300" width="80" height="80" as="geometry" />
        </mxCell>
        <mxCell id="-8UJp8PdIsaVpiz4Ct3G-21" value="" style="edgeStyle=orthogonalEdgeStyle;rounded=0;orthogonalLoop=1;jettySize=auto;html=1;" edge="1" parent="1" source="-8UJp8PdIsaVpiz4Ct3G-9" target="-8UJp8PdIsaVpiz4Ct3G-20">
          <mxGeometry relative="1" as="geometry" />
        </mxCell>
        <mxCell id="-8UJp8PdIsaVpiz4Ct3G-9" value="В коробку" style="whiteSpace=wrap;html=1;" vertex="1" parent="1">
          <mxGeometry x="354" y="410" width="120" height="60" as="geometry" />
        </mxCell>
        <mxCell id="-8UJp8PdIsaVpiz4Ct3G-14" value="" style="edgeStyle=orthogonalEdgeStyle;rounded=0;orthogonalLoop=1;jettySize=auto;html=1;" edge="1" parent="1" source="-8UJp8PdIsaVpiz4Ct3G-11" target="-8UJp8PdIsaVpiz4Ct3G-13">
          <mxGeometry relative="1" as="geometry" />
        </mxCell>
        <mxCell id="-8UJp8PdIsaVpiz4Ct3G-11" value="Подача на 2 станок" style="whiteSpace=wrap;html=1;" vertex="1" parent="1">
          <mxGeometry x="514" y="310" width="120" height="60" as="geometry" />
        </mxCell>
        <mxCell id="-8UJp8PdIsaVpiz4Ct3G-26" value="" style="edgeStyle=orthogonalEdgeStyle;rounded=0;orthogonalLoop=1;jettySize=auto;html=1;" edge="1" parent="1" source="-8UJp8PdIsaVpiz4Ct3G-13" target="-8UJp8PdIsaVpiz4Ct3G-25">
          <mxGeometry relative="1" as="geometry" />
        </mxCell>
        <mxCell id="-8UJp8PdIsaVpiz4Ct3G-13" value="Обработка" style="whiteSpace=wrap;html=1;" vertex="1" parent="1">
          <mxGeometry x="660" y="310" width="120" height="60" as="geometry" />
        </mxCell>
        <mxCell id="-8UJp8PdIsaVpiz4Ct3G-15" value="Да" style="text;html=1;align=center;verticalAlign=middle;resizable=0;points=[];autosize=1;" vertex="1" parent="1">
          <mxGeometry x="454" y="310" width="30" height="20" as="geometry" />
        </mxCell>
        <mxCell id="-8UJp8PdIsaVpiz4Ct3G-16" value="Нет" style="text;html=1;align=center;verticalAlign=middle;resizable=0;points=[];autosize=1;" vertex="1" parent="1">
          <mxGeometry x="340" y="505" width="40" height="20" as="geometry" />
        </mxCell>
        <mxCell id="-8UJp8PdIsaVpiz4Ct3G-22" value="" style="edgeStyle=orthogonalEdgeStyle;rounded=0;orthogonalLoop=1;jettySize=auto;html=1;" edge="1" parent="1" source="-8UJp8PdIsaVpiz4Ct3G-20" target="-8UJp8PdIsaVpiz4Ct3G-2">
          <mxGeometry relative="1" as="geometry" />
        </mxCell>
        <mxCell id="-8UJp8PdIsaVpiz4Ct3G-20" value="Конец?" style="rhombus;whiteSpace=wrap;html=1;" vertex="1" parent="1">
          <mxGeometry x="374" y="505" width="80" height="80" as="geometry" />
        </mxCell>
        <mxCell id="-8UJp8PdIsaVpiz4Ct3G-23" value="Да" style="text;html=1;align=center;verticalAlign=middle;resizable=0;points=[];autosize=1;" vertex="1" parent="1">
          <mxGeometry x="424" y="585" width="30" height="20" as="geometry" />
        </mxCell>
        <mxCell id="-8UJp8PdIsaVpiz4Ct3G-24" value="" style="endArrow=classic;html=1;exitX=0;exitY=0.5;exitDx=0;exitDy=0;" edge="1" parent="1" source="-8UJp8PdIsaVpiz4Ct3G-20">
          <mxGeometry width="50" height="50" relative="1" as="geometry">
            <mxPoint x="390" y="420" as="sourcePoint" />
            <mxPoint x="414" y="110" as="targetPoint" />
            <Array as="points">
              <mxPoint x="300" y="545" />
              <mxPoint x="300" y="110" />
            </Array>
          </mxGeometry>
        </mxCell>
        <mxCell id="-8UJp8PdIsaVpiz4Ct3G-28" value="" style="edgeStyle=orthogonalEdgeStyle;rounded=0;orthogonalLoop=1;jettySize=auto;html=1;" edge="1" parent="1" source="-8UJp8PdIsaVpiz4Ct3G-25" target="-8UJp8PdIsaVpiz4Ct3G-27">
          <mxGeometry relative="1" as="geometry" />
        </mxCell>
        <mxCell id="-8UJp8PdIsaVpiz4Ct3G-30" value="" style="edgeStyle=orthogonalEdgeStyle;rounded=0;orthogonalLoop=1;jettySize=auto;html=1;" edge="1" parent="1" source="-8UJp8PdIsaVpiz4Ct3G-25" target="-8UJp8PdIsaVpiz4Ct3G-29">
          <mxGeometry relative="1" as="geometry" />
        </mxCell>
        <mxCell id="-8UJp8PdIsaVpiz4Ct3G-25" value="Брак?" style="rhombus;whiteSpace=wrap;html=1;" vertex="1" parent="1">
          <mxGeometry x="680" y="440" width="80" height="80" as="geometry" />
        </mxCell>
        <mxCell id="-8UJp8PdIsaVpiz4Ct3G-27" value="В мусор" style="whiteSpace=wrap;html=1;" vertex="1" parent="1">
          <mxGeometry x="530" y="450" width="120" height="60" as="geometry" />
        </mxCell>
        <mxCell id="-8UJp8PdIsaVpiz4Ct3G-29" value="В коробку" style="whiteSpace=wrap;html=1;" vertex="1" parent="1">
          <mxGeometry x="660" y="545" width="120" height="60" as="geometry" />
        </mxCell>
        <mxCell id="-8UJp8PdIsaVpiz4Ct3G-31" value="Да" style="text;html=1;align=center;verticalAlign=middle;resizable=0;points=[];autosize=1;" vertex="1" parent="1">
          <mxGeometry x="655" y="440" width="30" height="20" as="geometry" />
        </mxCell>
        <mxCell id="-8UJp8PdIsaVpiz4Ct3G-32" value="Нет" style="text;html=1;align=center;verticalAlign=middle;resizable=0;points=[];autosize=1;" vertex="1" parent="1">
          <mxGeometry x="730" y="510" width="40" height="20" as="geometry" />
        </mxCell>
      </root>
    </mxGraphModel>
  </diagram>
</mxfile>
